Coordinates
version=1
nRows=26
nColumns=24
inDegrees=yes

Units are S.I. units (second, meters, Newtons, ...)
Angles are in degrees.

endheader
time	pelvis_tilt	pelvis_list	pelvis_rotation	pelvis_tx	pelvis_ty	pelvis_tz	hip_flexion_r	hip_adduction_r	hip_rotation_r	knee_angle_r	ankle_angle_r	subtalar_angle_r	mtp_angle_r	hip_flexion_l	hip_adduction_l	hip_rotation_l	knee_angle_l	ankle_angle_l	subtalar_angle_l	mtp_angle_l	lumbar_extension	lumbar_bending	lumbar_rotation
      1.02516667	     -4.19891427	     -4.08353387	     -5.37528269	     -0.12038403	      0.87917109	      0.32875833	    -13.07419115	      8.80481321	      2.14318564	     -8.83879297	     18.74919342	     10.48721906	      9.47127550	     32.47145938	     -5.57660293	    -11.40607032	     -5.72008771	      4.29427395	     -0.55827678	      2.98386222	     -3.04342210	      4.25282194	     11.84678132
      1.02933333	     -4.21504621	     -3.99237495	     -5.54630294	     -0.11458675	      0.87825126	      0.32887677	    -13.15035468	      8.63197129	      2.25760406	     -9.47082120	     18.86344456	     10.47959993	      9.57589751	     32.51483495	     -5.53091749	    -11.22493063	     -6.16102807	      4.14670895	     -0.57798151	      3.02315783	     -3.01804123	      4.07388579	     11.90103833
      1.03350000	     -4.29335388	     -3.87386557	     -5.73613381	     -0.10875240	      0.87730358	      0.32900042	    -13.12607631	      8.42588652	      2.37207944	    -10.16806097	     19.01726573	     10.64664044	      9.79348449	     32.61063720	     -5.46757888	    -11.01444609	     -6.64678352	      3.93428364	     -0.64552977	      3.11099295	     -2.91472337	      3.85784884	     12.02946954
      1.03766667	     -4.31023873	     -3.74394519	     -5.88374357	     -0.10285143	      0.87649587	      0.32900602	    -13.14239836	      8.19462044	      2.31314838	    -10.90539946	     19.07334587	     10.95148325	     10.48918690	     32.64096811	     -5.35878350	    -10.76245062	     -7.18524906	      3.66375741	     -0.87132097	      3.41278803	     -2.87682750	      3.64739464	     12.19418870
      1.04183333	     -4.27670698	     -3.60402565	     -6.03306481	     -0.09686973	      0.87584927	      0.32910574	    -13.25939385	      7.96863204	      2.46781574	    -11.55582883	     19.04042344	     10.83273462	     10.59698591	     32.62415253	     -5.25924519	    -10.64079730	     -7.80758774	      3.40240569	     -0.94289144	      3.45703343	     -2.87824743	      3.38548687	     12.17086551
      1.04600000	     -4.29394455	     -3.44359533	     -6.16044936	     -0.09083165	      0.87518825	      0.32911117	    -13.28383027	      7.71674571	      2.50652479	    -12.26056371	     18.86961021	     10.86956553	     14.66156907	     32.63397726	     -5.10907032	    -10.38831948	     -8.39362673	      2.96936319	     -1.29134947	      5.26513987	     -2.80940225	      3.10400325	     12.16633867
      1.05016667	     -4.27487136	     -3.28202344	     -6.30968627	     -0.08477883	      0.87464271	      0.32915769	    -13.32253998	      7.45969935	      2.60947078	    -13.03073993	     18.79839651	     10.88375797	     14.70502378	     32.63373051	     -4.98322994	    -10.26530982	     -9.10097157	      2.63793037	     -1.47006357	      5.28581036	     -2.78722763	      2.82572123	     12.21763610
      1.05433333	     -4.25649683	     -3.11129199	     -6.41191527	     -0.07865974	      0.87414618	      0.32909494	    -13.34024797	      7.19169830	      2.58821496	    -13.83086592	     18.66831265	     11.02279162	     14.87431541	     32.62565756	     -4.80668683	    -10.03303787	     -9.79950198	      2.19740046	     -1.91420856	      5.35115821	     -2.74512403	      2.55024778	     12.26943058
      1.05850000	     -4.22766817	     -2.91585704	     -6.52865235	     -0.07246626	      0.87375468	      0.32907683	    -13.36058519	      6.90104527	      2.64901184	    -14.64452834	     18.42802025	     10.99278617	     15.00651912	     32.59621590	     -4.62221152	     -9.90945027	    -10.51311455	      1.75737825	     -2.21610086	      5.39017239	     -2.70320174	      2.21807925	     12.24721896
      1.06266667	     -4.20467143	     -2.72216209	     -6.62173512	     -0.06624815	      0.87340794	      0.32898797	    -13.34447857	      6.61056360	      2.64707643	    -15.50977619	     18.14389380	     11.02822571	     15.21227569	     32.57672685	     -4.41739967	     -9.72375970	    -11.23949562	      1.26820689	     -2.69352545	      5.44133882	     -2.64347935	      1.89506919	     12.22261878
      1.06683333	     -4.14893478	     -2.53907051	     -6.65747849	     -0.05999550	      0.87314275	      0.32877705	    -13.35007422	      6.33220852	      2.55861360	    -16.39739323	     17.86027761	     11.12691770	     15.71833052	     32.53323862	     -4.17601899	     -9.42721711	    -11.98559448	      0.74136128	     -3.39951905	      5.55693758	     -2.63591425	      1.61089143	     12.18851260
      1.07100000	     -4.11675976	     -2.33755157	     -6.71646306	     -0.05371604	      0.87292787	      0.32858997	    -13.28529843	      6.03190600	      2.49903931	    -17.36237103	     17.44946997	     11.16169004	     16.63732558	     32.50164739	     -3.93152874	     -9.18632306	    -12.72183416	      0.23646465	     -4.04617889	      5.74045757	     -2.58873358	      1.29656408	     12.11039099
      1.07516667	     -3.99566874	     -2.11183057	     -6.77105275	     -0.04730895	      0.87293458	      0.32842918	    -13.33476596	      5.69680824	      2.46307262	    -18.26751092	     16.86434595	     11.09389914	     20.97319842	     32.38245260	     -3.68020211	     -9.15796602	    -13.50654972	     -0.21457175	     -4.44109247	      6.50434554	     -2.63389090	      0.91062593	     12.04423886
      1.07933333	     -4.00246954	     -1.93387599	     -6.78769142	     -0.04093964	      0.87277455	      0.32821293	    -13.19993370	      5.44357176	      2.41361975	    -19.27280376	     16.25581647	     11.01526678	     21.03210492	     32.44527380	     -3.47029171	     -9.03233086	    -14.37845581	     -0.58261527	     -4.77145815	      6.50573774	     -2.50368901	      0.61267309	     11.98598897
      1.08350000	     -3.92293336	     -1.71851101	     -6.76903625	     -0.03453022	      0.87280284	      0.32785829	    -13.12008742	      5.12656034	      2.24331504	    -20.33619639	     15.69302347	     11.08102890	     21.56242893	     32.37307478	     -3.16222196	     -8.77945716	    -15.15016137	     -1.04467919	     -5.49283752	      6.51856757	     -2.49901266	      0.27153861	     11.86708776
      1.08766667	     -3.91924411	     -1.53732152	     -6.77748342	     -0.02817507	      0.87276843	      0.32756159	    -12.90121123	      4.86125302	      2.16058189	    -21.50697788	     15.05926602	     11.01909630	     21.82176079	     32.41460515	     -2.93236318	     -8.63181350	    -16.00701823	     -1.37899910	     -5.94109115	      6.51188394	     -2.40601175	     -0.00037785	     11.75238442
      1.09183333	     -3.83982234	     -1.31819088	     -6.75727660	     -0.02171699	      0.87292137	      0.32719146	    -12.75272548	      4.53293780	      1.98385241	    -22.66290174	     14.26178927	     11.01448114	     25.67570974	     32.34292894	     -2.63133136	     -8.46485560	    -16.81020842	     -1.64406608	     -6.44813723	      6.39319822	     -2.38870087	     -0.35144169	     11.64261953
      1.09600000	     -3.80067817	     -1.12792472	     -6.72082818	     -0.01530662	      0.87305624	      0.32679181	    -12.51071625	      4.24862585	      1.82097068	    -23.91585472	     13.46718658	     10.99782678	     25.75236447	     32.33374852	     -2.36083110	     -8.30084105	    -17.65062860	     -1.88141936	     -6.88314975	      6.37583058	     -2.32723603	     -0.64722742	     11.50141679
      1.10016667	     -3.74491477	     -0.91813895	     -6.67409245	     -0.00887222	      0.87326516	      0.32633833	    -12.24630557	      3.92926030	      1.60979178	    -25.22808157	     12.64008572	     11.03260556	     25.93660542	     32.28973210	     -2.05509992	     -8.11455349	    -18.46147375	     -2.05803928	     -7.35976859	      6.34260246	     -2.28980347	     -0.96584913	     11.34693407
      1.10433333	     -3.69044472	     -0.70871410	     -6.61773647	     -0.00244349	      0.87352290	      0.32584255	    -11.93699553	      3.60360096	      1.37571979	    -26.60200260	     11.74665979	     11.07308458	     26.19860161	     32.23598252	     -1.74143010	     -7.92813773	    -19.25453313	     -2.16926616	     -7.77728644	      6.29612582	     -2.24695161	     -1.28249481	     11.18858972
      1.10850000	     -3.62654245	     -0.49619070	     -6.55207733	      0.00397858	      0.87383702	      0.32532428	    -11.59509977	      3.26658508	      1.11548181	    -28.03681499	     10.79285207	     11.11761470	     26.53526695	     32.16112375	     -1.41890941	     -7.74898255	    -20.02942336	     -2.21212399	     -8.15451093	      6.23347271	     -2.21402869	     -1.59794817	     11.02487784
      1.11266667	     -3.51666683	     -0.27837423	     -6.47779050	      0.01040582	      0.87426785	      0.32476781	    -11.27779855	      2.90756508	      0.83801550	    -29.48186794	      9.70067859	     11.10432055	     30.58348794	     32.02257056	     -1.07953242	     -7.58436709	    -20.78759580	     -2.13690575	     -8.48618867	      5.42234498	     -2.25255407	     -1.94516155	     10.89053943
      1.11683333	     -3.45034407	     -0.07592726	     -6.39585592	      0.01677970	      0.87465588	      0.32418099	    -10.85949014	      2.56244558	      0.54243706	    -31.01786002	      8.63443599	     11.16837881	     30.62668819	     31.93034845	     -0.75816573	     -7.42223798	    -21.54254619	     -2.04322118	     -8.76247873	      5.39775978	     -2.23458044	     -2.24494597	     10.72190197
      1.12100000	     -3.36139759	      0.13918282	     -6.31380631	      0.02313372	      0.87512815	      0.32358629	    -10.42661252	      2.19195171	      0.24076713	    -32.59738390	      7.49716556	     11.20762693	     30.68406486	     31.77734919	     -0.41617009	     -7.25678395	    -22.22389266	     -1.88414782	     -8.97833610	      5.37198050	     -2.25026633	     -2.56619313	     10.57535837
      1.12516667	     -3.25935179	      0.35018434	     -6.22634541	      0.02945221	      0.87564758	      0.32295639	     -9.97346330	      1.81127755	     -0.07930419	    -34.21092774	      6.31606419	     11.23949472	     30.73926585	     31.59821889	     -0.07284070	     -7.10583185	    -22.88571560	     -1.66296071	     -9.18239500	      5.34712716	     -2.28604733	     -2.88410482	     10.43253685
      1.12933333	     -3.18151499	      0.58000753	     -6.12549941	      0.03571194	      0.87613717	      0.32226665	     -9.43698182	      1.39083230	     -0.46553551	    -35.90624171	      5.14821410	     11.29764711	     30.86314201	     31.42190676	      0.30378066	     -6.93961289	    -23.48159410	     -1.49504824	     -9.47695025	      5.28647756	     -2.29285754	     -3.18239114	     10.20678182
